ply
format ascii 1.0
comment Created by Blender 2.82 (sub 7) - www.blender.org, source file: 'character07.blend'
element vertex 322
property float x
property float y
property float z
property float nx
property float ny
property float nz
property float s
property float t
element face 124
property list uchar uint vertex_indices
end_header
-0.298116 -0.127226 1.265454 -0.393220 0.147590 0.907521 0.254212 0.744052
0.000000 -0.186699 1.352103 -0.393220 0.147590 0.907521 0.369407 0.744052
0.000000 -0.140742 1.348533 -0.393220 0.147590 0.907521 0.369407 0.745326
-0.099417 -0.111805 1.336667 -0.393220 0.147590 0.907521 0.329051 0.745326
-0.164608 -0.034945 1.301710 -0.393220 0.147590 0.907521 0.304110 0.745326
-0.163906 0.056870 1.284588 -0.393220 0.147590 0.907521 0.304110 0.745326
-0.097394 0.127227 1.316221 -0.393220 0.147590 0.907521 0.329051 0.745326
-0.000000 0.153658 1.332436 -0.393220 0.147590 0.907521 0.369407 0.745326
0.000000 0.201586 1.329979 -0.393220 0.147590 0.907521 0.369407 0.744052
-0.275726 0.130001 1.211228 -0.393220 0.147590 0.907521 0.254212 0.744052
-0.000000 -0.240098 1.140493 -0.175201 -0.901315 0.396151 0.369407 0.645416
0.000000 -0.186699 1.352103 -0.175201 -0.901315 0.396151 0.369407 0.744052
-0.298116 -0.127226 1.265454 -0.175201 -0.901315 0.396151 0.254212 0.744052
-0.241005 -0.252859 1.094989 -0.175201 -0.901315 0.396151 0.240579 0.645416
-0.241005 -0.252859 1.094989 -0.349757 -0.839924 0.414967 0.240579 0.645416
-0.298116 -0.127226 1.265454 -0.349757 -0.839924 0.414967 0.254212 0.744052
-0.607540 -0.115583 1.063909 -0.349757 -0.839924 0.414967 0.120154 0.744515
-0.422763 -0.200359 1.012367 -0.349757 -0.839924 0.414967 0.120154 0.644953
-0.306477 0.102494 0.716127 -0.087315 0.995540 0.035734 0.213313 0.461692
-0.210461 0.087499 1.017568 -0.087315 0.995540 0.035734 0.240579 0.645416
-0.000000 0.114642 1.126579 -0.087315 0.995540 0.035734 0.369407 0.645416
0.000000 0.116296 0.729541 -0.087315 0.995540 0.035734 0.369407 0.461692
-0.308377 -0.249559 0.724350 -0.968510 0.074757 0.237488 0.213313 0.461692
-0.241005 -0.252859 1.094989 -0.968510 0.074757 0.237488 0.240579 0.645416
-0.210461 0.087499 1.017568 -0.968510 0.074757 0.237488 0.240579 0.645416
-0.306477 0.102494 0.716127 -0.968510 0.074757 0.237488 0.213313 0.461692
-0.000000 -0.150071 0.432884 0.018058 -0.951918 -0.305819 0.369407 0.324665
-0.000000 -0.240226 0.733754 0.018058 -0.951918 -0.305819 0.369407 0.461692
-0.308377 -0.249559 0.724350 0.018058 -0.951918 -0.305819 0.213313 0.461692
-0.342856 -0.150071 0.432884 0.018058 -0.951918 -0.305819 0.211041 0.324665
-0.210461 0.087499 1.017568 -0.044292 0.947649 -0.316227 0.240579 0.645416
-0.275726 0.130001 1.211228 -0.044292 0.947649 -0.316227 0.254212 0.744052
0.000000 0.201586 1.329979 -0.044292 0.947649 -0.316227 0.369407 0.744052
-0.000000 0.114642 1.126579 -0.044292 0.947649 -0.316227 0.369407 0.645416
-0.000000 -0.150071 0.432884 0.000000 -1.000000 0.000000 0.369407 0.324665
-0.342856 -0.150071 0.432884 0.000000 -1.000000 0.000000 0.211041 0.324665
-0.387128 -0.150071 0.167251 0.000000 -1.000000 0.000000 0.190591 0.201968
-0.044272 -0.150071 0.167251 0.000000 -1.000000 0.000000 0.348958 0.201968
-0.342856 0.116296 0.432884 -0.021763 0.999447 0.025152 0.211041 0.324665
-0.306477 0.102494 0.716127 -0.021763 0.999447 0.025152 0.213313 0.461692
0.000000 0.116296 0.729541 -0.021763 0.999447 0.025152 0.369407 0.461692
-0.000000 0.116296 0.432884 -0.021763 0.999447 0.025152 0.369407 0.324665
-0.342856 -0.150071 0.432884 -0.992361 0.004688 0.123275 0.211041 0.324665
-0.308377 -0.249559 0.724350 -0.992361 0.004688 0.123275 0.213313 0.461692
-0.306477 0.102494 0.716127 -0.992361 0.004688 0.123275 0.213313 0.461692
-0.342856 0.116296 0.432884 -0.992361 0.004688 0.123275 0.211041 0.324665
-0.000000 -0.240226 0.733754 0.040944 -0.999132 -0.007624 0.369407 0.461692
-0.000000 -0.240098 1.140493 0.040944 -0.999132 -0.007624 0.369407 0.645416
-0.241005 -0.252859 1.094989 0.040944 -0.999132 -0.007624 0.240579 0.645416
-0.308377 -0.249559 0.724350 0.040944 -0.999132 -0.007624 0.213313 0.461692
-0.607540 -0.115583 1.063909 -0.894560 0.401940 0.195468 0.120154 0.744515
-0.528588 0.117178 0.962704 -0.894560 0.401940 0.195468 0.120154 0.744515
-0.607145 0.046156 0.733136 -0.894560 0.401940 0.195468 0.006545 0.744515
-0.691518 -0.184231 0.836841 -0.894560 0.401940 0.195468 0.006545 0.744515
-0.210461 0.087499 1.017568 0.483128 -0.341758 -0.806095 0.240579 0.645416
-0.241005 -0.252859 1.094989 0.483128 -0.341758 -0.806095 0.240579 0.645416
-0.422763 -0.200359 1.012367 0.483128 -0.341758 -0.806095 0.120154 0.644953
-0.342670 0.031862 0.913344 0.483128 -0.341758 -0.806095 0.120154 0.644953
-0.275726 0.130001 1.211228 0.145166 0.929565 -0.338873 0.254212 0.744052
-0.210461 0.087499 1.017568 0.145166 0.929565 -0.338873 0.240579 0.645416
-0.342670 0.031862 0.913344 0.145166 0.929565 -0.338873 0.120154 0.644953
-0.528588 0.117178 0.962704 0.145166 0.929565 -0.338873 0.120154 0.744515
-0.298116 -0.127226 1.265454 -0.585200 0.352661 0.730186 0.254212 0.744052
-0.275726 0.130001 1.211228 -0.585200 0.352661 0.730186 0.254212 0.744052
-0.528588 0.117178 0.962704 -0.585200 0.352661 0.730186 0.120154 0.744515
-0.607540 -0.115583 1.063909 -0.585200 0.352661 0.730186 0.120154 0.744515
-0.498996 -0.272634 0.797080 -0.319225 -0.289308 -0.902439 0.006545 0.644953
-0.691518 -0.184231 0.836841 -0.319225 -0.289308 -0.902439 0.006545 0.744515
-0.607145 0.046156 0.733136 -0.319225 -0.289308 -0.902439 0.006545 0.744515
-0.414624 -0.042247 0.693375 -0.319225 -0.289308 -0.902439 0.006545 0.644953
-0.422763 -0.200359 1.012367 -0.305390 -0.869736 0.387680 0.120154 0.644953
-0.607540 -0.115583 1.063909 -0.305390 -0.869736 0.387680 0.120154 0.744515
-0.691518 -0.184231 0.836841 -0.305390 -0.869736 0.387680 0.006545 0.744515
-0.498996 -0.272634 0.797080 -0.305390 -0.869736 0.387680 0.006545 0.644953
-0.342670 0.031862 0.913344 0.901464 -0.396540 -0.173546 0.120154 0.644953
-0.422763 -0.200359 1.012367 0.901464 -0.396540 -0.173546 0.120154 0.644953
-0.498996 -0.272634 0.797080 0.901464 -0.396540 -0.173546 0.006545 0.644953
-0.414624 -0.042247 0.693375 0.901464 -0.396540 -0.173546 0.006545 0.644953
-0.528588 0.117178 0.962704 0.308871 0.870009 -0.384295 0.120154 0.744515
-0.342670 0.031862 0.913344 0.308871 0.870009 -0.384295 0.120154 0.644953
-0.414624 -0.042247 0.693375 0.308871 0.870009 -0.384295 0.006545 0.644953
-0.607145 0.046156 0.733136 0.308871 0.870009 -0.384295 0.006545 0.744515
-0.044272 0.116296 0.167251 1.000000 0.000000 -0.000000 0.348958 0.201968
-0.044272 -0.150071 0.167251 1.000000 0.000000 -0.000000 0.348958 0.201968
-0.044272 -0.150071 0.004919 1.000000 0.000000 -0.000000 0.348958 0.126986
-0.044272 0.116296 0.004919 1.000000 0.000000 -0.000000 0.348958 0.126986
-0.342856 0.116296 0.432884 0.000000 1.000000 0.000000 0.211041 0.324665
-0.000000 0.116296 0.432884 0.000000 1.000000 0.000000 0.369407 0.324665
-0.044272 0.116296 0.167251 0.000000 1.000000 0.000000 0.348958 0.201968
-0.387128 0.116296 0.167251 0.000000 1.000000 0.000000 0.190591 0.201968
-0.000000 0.116296 0.432884 0.986394 0.000000 -0.164399 0.369407 0.324665
-0.000000 -0.150071 0.432884 0.986394 0.000000 -0.164399 0.369407 0.324665
-0.044272 -0.150071 0.167251 0.986394 0.000000 -0.164399 0.348958 0.201968
-0.044272 0.116296 0.167251 0.986394 0.000000 -0.164399 0.348958 0.201968
-0.342856 -0.150071 0.432884 -0.986394 0.000000 0.164399 0.211041 0.324665
-0.342856 0.116296 0.432884 -0.986394 0.000000 0.164399 0.211041 0.324665
-0.387128 0.116296 0.167251 -0.986394 0.000000 0.164399 0.190591 0.201968
-0.387128 -0.150071 0.167251 -0.986394 0.000000 0.164399 0.190591 0.201968
-0.387128 0.116296 0.004919 0.000000 -0.000000 -1.000000 0.190591 0.126986
-0.044272 0.116296 0.004919 0.000000 -0.000000 -1.000000 0.348958 0.126986
-0.044272 -0.150071 0.004919 0.000000 -0.000000 -1.000000 0.348958 0.126986
-0.387128 -0.150071 0.004919 0.000000 -0.000000 -1.000000 0.190591 0.126986
-0.044272 0.116296 0.004919 0.000000 1.000000 -0.000000 0.348958 0.126986
-0.387128 0.116296 0.004919 0.000000 1.000000 -0.000000 0.190591 0.126986
-0.044272 -0.312283 0.167251 1.000000 -0.000000 0.000000 0.348958 0.201968
-0.044272 -0.312283 0.004919 1.000000 -0.000000 0.000000 0.348958 0.126986
-0.387128 -0.150071 0.167251 -1.000000 0.000000 0.000000 0.190591 0.201968
-0.387128 0.116296 0.167251 -1.000000 0.000000 0.000000 0.190591 0.201968
-0.387128 0.116296 0.004919 -1.000000 0.000000 0.000000 0.190591 0.126986
-0.387128 -0.150071 0.004919 -1.000000 0.000000 0.000000 0.190591 0.126986
-0.044272 -0.312283 0.167251 0.000000 -1.000000 0.000000 0.348958 0.201968
-0.387128 -0.312283 0.167251 0.000000 -1.000000 0.000000 0.190591 0.201968
-0.387128 -0.312283 0.004919 0.000000 -1.000000 0.000000 0.190591 0.126986
-0.044272 -0.312283 0.004919 0.000000 -1.000000 0.000000 0.348958 0.126986
-0.044272 -0.312283 0.004919 0.000000 -0.000000 -1.000000 0.348958 0.126986
-0.387128 -0.312283 0.004919 0.000000 -0.000000 -1.000000 0.190591 0.126986
-0.387128 -0.312283 0.004919 -1.000000 0.000000 0.000000 0.190591 0.126986
-0.387128 -0.312283 0.167251 -1.000000 0.000000 0.000000 0.190591 0.201968
-0.044272 -0.150071 0.167251 0.000000 -0.000000 1.000000 0.348958 0.201968
-0.387128 -0.150071 0.167251 0.000000 -0.000000 1.000000 0.190591 0.201968
-0.387128 -0.312283 0.167251 0.000000 -0.000000 1.000000 0.190591 0.201968
-0.044272 -0.312283 0.167251 0.000000 -0.000000 1.000000 0.348958 0.201968
-0.000000 0.153190 1.391474 0.000000 0.870968 -0.491317 0.369407 0.770874
-0.097541 0.125001 1.384600 -0.470656 0.753166 -0.459548 0.329051 0.770874
-0.141930 0.190919 1.445261 -0.518784 0.755394 -0.400250 0.306110 0.796077
0.000000 0.235477 1.449164 0.000000 0.913022 -0.407849 0.369407 0.796077
-0.227729 0.074893 1.441818 -0.873806 0.292459 -0.388470 0.266989 0.796077
-0.221730 0.072044 1.778468 -0.886196 0.289285 0.361888 0.266989 0.946196
-0.137036 0.188615 1.778468 -0.545671 0.756920 0.359508 0.306110 0.946196
-0.228107 -0.069068 1.444521 -0.865688 -0.302774 -0.398572 0.266989 0.796077
-0.221730 -0.072044 1.778468 -0.886868 -0.289468 0.359996 0.266989 0.946196
-0.143117 -0.185857 1.450184 -0.509659 -0.746635 -0.427503 0.843791 0.808381
0.000000 -0.229898 1.454731 0.000000 -0.899350 -0.437208 0.907088 0.808381
0.000000 -0.233140 1.778468 0.000000 -0.936827 0.349742 0.907088 0.958500
-0.137036 -0.188614 1.778468 -0.545915 -0.759270 0.354137 0.843791 0.958500
-0.098643 -0.114776 1.393287 -0.450850 -0.726737 -0.518174 0.329051 0.770874
0.000000 -0.141992 1.400563 0.000000 -0.839900 -0.542711 0.369407 0.770874
0.000000 -0.229898 1.454731 0.000000 -0.899350 -0.437208 0.369407 0.796077
-0.143117 -0.185857 1.450184 -0.509659 -0.746635 -0.427503 0.306110 0.796077
0.000000 0.233140 1.778468 0.000000 0.934049 0.357128 0.369407 0.946196
-0.156735 0.053154 1.374143 -0.857845 0.319346 -0.402600 0.304110 0.770874
-0.156912 -0.038727 1.380311 -0.841670 -0.315744 -0.438002 0.304110 0.770874
0.000000 -0.140742 1.348533 0.000000 -0.639149 0.769066 0.369407 0.745326
-0.099417 -0.111805 1.336667 -0.673940 -0.515305 0.529344 0.329051 0.745326
-0.164608 -0.034945 1.301710 -0.833277 -0.073611 0.547868 0.304110 0.745326
-0.137036 -0.188614 1.778468 -0.545915 -0.759270 0.354137 0.306110 0.946196
-0.104433 -0.143739 1.835403 -0.264809 -0.364452 0.892758 0.321169 0.972494
-0.168976 -0.054904 1.835403 -0.428449 -0.139195 0.892758 0.291357 0.972494
-0.163906 0.056870 1.284588 -0.782311 0.286416 0.553087 0.304110 0.745326
-0.097394 0.127227 1.316221 -0.588153 0.619678 0.519639 0.329051 0.745326
-0.000000 0.153658 1.332436 0.000000 0.752678 0.658345 0.369407 0.745326
-0.228107 -0.069068 1.444521 -0.865688 -0.302774 -0.398572 0.804670 0.808381
-0.221730 -0.072044 1.778468 -0.886868 -0.289468 0.359996 0.804670 0.958500
0.000000 0.177671 1.835403 0.000000 0.450514 0.892758 0.369407 0.972494
-0.104433 0.143739 1.835403 -0.264809 0.364452 0.892758 0.321170 0.972494
-0.024134 0.033217 1.835403 -0.365062 0.502487 0.783685 0.358260 0.972494
0.000000 0.041059 1.835403 0.000000 0.621113 0.783685 0.369407 0.972494
0.000000 -0.233140 1.778468 0.000000 -0.936827 0.349742 0.369407 0.946196
0.000000 -0.177671 1.835403 0.000000 -0.450514 0.892758 0.369407 0.972494
-0.168976 0.054904 1.835403 -0.428449 0.139195 0.892758 0.291357 0.972494
-0.024134 -0.033217 1.835403 -0.365062 -0.502487 0.783685 0.358260 0.972494
0.000000 -0.041059 1.835403 0.000000 -0.621113 0.783685 0.369407 0.972494
0.000000 -0.041059 1.878103 0.000000 -0.765252 0.643696 0.369407 0.992218
-0.024134 -0.033217 1.878103 -0.449782 -0.619098 0.643696 0.358260 0.992218
-0.039049 0.012688 1.835403 -0.590716 0.191931 0.783685 0.351370 0.972494
-0.039049 -0.012688 1.835403 -0.590716 -0.191931 0.783685 0.351370 0.972494
-0.039049 0.012688 1.878103 -0.727805 0.236457 0.643696 0.351370 0.992218
-0.024134 0.033217 1.878103 -0.449782 0.619098 0.643696 0.358260 0.992218
-0.039049 -0.012688 1.878103 -0.727805 -0.236457 0.643696 0.351370 0.992218
0.000000 0.041059 1.878103 0.000000 0.765252 0.643696 0.369407 0.992218
0.298116 -0.127226 1.265453 0.393220 0.147590 0.907521 0.254212 0.744052
0.275726 0.130001 1.211228 0.393220 0.147590 0.907521 0.254212 0.744052
0.000000 0.201586 1.329979 0.393220 0.147590 0.907521 0.369407 0.744052
-0.000000 0.153658 1.332436 0.393220 0.147590 0.907521 0.369407 0.745326
0.097394 0.127227 1.316221 0.393220 0.147590 0.907521 0.329051 0.745326
0.163906 0.056870 1.284588 0.393220 0.147590 0.907521 0.304110 0.745326
0.164608 -0.034945 1.301710 0.393220 0.147590 0.907521 0.304110 0.745326
0.099417 -0.111805 1.336667 0.393220 0.147590 0.907521 0.329051 0.745326
0.000000 -0.140742 1.348533 0.393220 0.147590 0.907521 0.369407 0.745326
0.000000 -0.186699 1.352103 0.393220 0.147590 0.907521 0.369407 0.744052
-0.000000 -0.240098 1.140493 0.175201 -0.901315 0.396151 0.369407 0.645416
0.241005 -0.252859 1.094989 0.175201 -0.901315 0.396151 0.240579 0.645416
0.298116 -0.127226 1.265453 0.175201 -0.901315 0.396151 0.254212 0.744052
0.000000 -0.186699 1.352103 0.175201 -0.901315 0.396151 0.369407 0.744052
0.241005 -0.252859 1.094989 0.349757 -0.839924 0.414967 0.240579 0.645416
0.422764 -0.200359 1.012368 0.349757 -0.839924 0.414967 0.120154 0.644953
0.607541 -0.115583 1.063909 0.349757 -0.839924 0.414967 0.120154 0.744515
0.298116 -0.127226 1.265453 0.349757 -0.839924 0.414967 0.254212 0.744052
0.306477 0.102494 0.716127 0.087316 0.995540 0.035734 0.213313 0.461692
0.000000 0.116296 0.729541 0.087316 0.995540 0.035734 0.369407 0.461692
-0.000000 0.114642 1.126579 0.087316 0.995540 0.035734 0.369407 0.645416
0.210461 0.087499 1.017568 0.087316 0.995540 0.035734 0.240579 0.645416
0.308377 -0.249559 0.724350 0.968510 0.074757 0.237488 0.213313 0.461692
0.306477 0.102494 0.716127 0.968510 0.074757 0.237488 0.213313 0.461692
0.210461 0.087499 1.017568 0.968510 0.074757 0.237488 0.240579 0.645416
0.241005 -0.252859 1.094989 0.968510 0.074757 0.237488 0.240579 0.645416
-0.000000 -0.150071 0.432884 -0.018058 -0.951918 -0.305819 0.369407 0.324665
0.342856 -0.150071 0.432884 -0.018058 -0.951918 -0.305819 0.211041 0.324665
0.308377 -0.249559 0.724350 -0.018058 -0.951918 -0.305819 0.213313 0.461692
-0.000000 -0.240226 0.733754 -0.018058 -0.951918 -0.305819 0.369407 0.461692
0.210461 0.087499 1.017568 0.044292 0.947649 -0.316227 0.240579 0.645416
-0.000000 0.114642 1.126579 0.044292 0.947649 -0.316227 0.369407 0.645416
0.000000 0.201586 1.329979 0.044292 0.947649 -0.316227 0.369407 0.744052
0.275726 0.130001 1.211228 0.044292 0.947649 -0.316227 0.254212 0.744052
0.044272 -0.150071 0.167251 0.000000 -1.000000 0.000000 0.348958 0.201968
0.387128 -0.150071 0.167251 0.000000 -1.000000 0.000000 0.190591 0.201968
0.342856 -0.150071 0.432884 0.000000 -1.000000 0.000000 0.211041 0.324665
0.342856 0.116296 0.432884 0.021763 0.999447 0.025152 0.211041 0.324665
-0.000000 0.116296 0.432884 0.021763 0.999447 0.025152 0.369407 0.324665
0.000000 0.116296 0.729541 0.021763 0.999447 0.025152 0.369407 0.461692
0.306477 0.102494 0.716127 0.021763 0.999447 0.025152 0.213313 0.461692
0.342856 -0.150071 0.432884 0.992361 0.004688 0.123275 0.211041 0.324665
0.342856 0.116296 0.432884 0.992361 0.004688 0.123275 0.211041 0.324665
0.306477 0.102494 0.716127 0.992361 0.004688 0.123275 0.213313 0.461692
0.308377 -0.249559 0.724350 0.992361 0.004688 0.123275 0.213313 0.461692
-0.000000 -0.240226 0.733754 -0.040944 -0.999132 -0.007624 0.369407 0.461692
0.308377 -0.249559 0.724350 -0.040944 -0.999132 -0.007624 0.213313 0.461692
0.241005 -0.252859 1.094989 -0.040944 -0.999132 -0.007624 0.240579 0.645416
-0.000000 -0.240098 1.140493 -0.040944 -0.999132 -0.007624 0.369407 0.645416
0.607541 -0.115583 1.063909 0.894559 0.401940 0.195468 0.120154 0.744515
0.691518 -0.184231 0.836841 0.894559 0.401940 0.195468 0.006545 0.744515
0.607145 0.046156 0.733136 0.894559 0.401940 0.195468 0.006545 0.744515
0.528588 0.117178 0.962704 0.894559 0.401940 0.195468 0.120154 0.744515
0.210461 0.087499 1.017568 -0.483128 -0.341758 -0.806095 0.240579 0.645416
0.342670 0.031862 0.913344 -0.483128 -0.341758 -0.806095 0.120154 0.644953
0.422764 -0.200359 1.012368 -0.483128 -0.341758 -0.806095 0.120154 0.644953
0.241005 -0.252859 1.094989 -0.483128 -0.341758 -0.806095 0.240579 0.645416
0.275726 0.130001 1.211228 -0.145166 0.929565 -0.338874 0.254212 0.744052
0.528588 0.117178 0.962704 -0.145166 0.929565 -0.338874 0.120154 0.744515
0.342670 0.031862 0.913344 -0.145166 0.929565 -0.338874 0.120154 0.644953
0.210461 0.087499 1.017568 -0.145166 0.929565 -0.338874 0.240579 0.645416
0.298116 -0.127226 1.265453 0.585200 0.352661 0.730186 0.254212 0.744052
0.607541 -0.115583 1.063909 0.585200 0.352661 0.730186 0.120154 0.744515
0.528588 0.117178 0.962704 0.585200 0.352661 0.730186 0.120154 0.744515
0.275726 0.130001 1.211228 0.585200 0.352661 0.730186 0.254212 0.744052
0.498996 -0.272634 0.797080 0.319224 -0.289309 -0.902439 0.006545 0.644953
0.414624 -0.042247 0.693375 0.319224 -0.289309 -0.902439 0.006545 0.644953
0.607145 0.046156 0.733136 0.319224 -0.289309 -0.902439 0.006545 0.744515
0.691518 -0.184231 0.836841 0.319224 -0.289309 -0.902439 0.006545 0.744515
0.422764 -0.200359 1.012368 0.305390 -0.869736 0.387680 0.120154 0.644953
0.498996 -0.272634 0.797080 0.305390 -0.869736 0.387680 0.006545 0.644953
0.691518 -0.184231 0.836841 0.305390 -0.869736 0.387680 0.006545 0.744515
0.607541 -0.115583 1.063909 0.305390 -0.869736 0.387680 0.120154 0.744515
0.342670 0.031862 0.913344 -0.901464 -0.396540 -0.173545 0.120154 0.644953
0.414624 -0.042247 0.693375 -0.901464 -0.396540 -0.173545 0.006545 0.644953
0.498996 -0.272634 0.797080 -0.901464 -0.396540 -0.173545 0.006545 0.644953
0.422764 -0.200359 1.012368 -0.901464 -0.396540 -0.173545 0.120154 0.644953
0.528588 0.117178 0.962704 -0.308871 0.870009 -0.384295 0.120154 0.744515
0.607145 0.046156 0.733136 -0.308871 0.870009 -0.384295 0.006545 0.744515
0.414624 -0.042247 0.693375 -0.308871 0.870009 -0.384295 0.006545 0.644953
0.342670 0.031862 0.913344 -0.308871 0.870009 -0.384295 0.120154 0.644953
0.044272 0.116296 0.167251 -1.000000 0.000000 0.000000 0.348958 0.201968
0.044272 0.116296 0.004919 -1.000000 0.000000 0.000000 0.348958 0.126986
0.044272 -0.150071 0.004919 -1.000000 0.000000 0.000000 0.348958 0.126986
0.044272 -0.150071 0.167251 -1.000000 0.000000 0.000000 0.348958 0.201968
0.342856 0.116296 0.432884 0.000000 1.000000 0.000000 0.211041 0.324665
0.387128 0.116296 0.167251 0.000000 1.000000 0.000000 0.190591 0.201968
0.044272 0.116296 0.167251 0.000000 1.000000 0.000000 0.348958 0.201968
-0.000000 0.116296 0.432884 -0.986394 0.000000 -0.164399 0.369407 0.324665
0.044272 0.116296 0.167251 -0.986394 0.000000 -0.164399 0.348958 0.201968
0.044272 -0.150071 0.167251 -0.986394 0.000000 -0.164399 0.348958 0.201968
-0.000000 -0.150071 0.432884 -0.986394 0.000000 -0.164399 0.369407 0.324665
0.342856 -0.150071 0.432884 0.986394 0.000000 0.164399 0.211041 0.324665
0.387128 -0.150071 0.167251 0.986394 0.000000 0.164399 0.190591 0.201968
0.387128 0.116296 0.167251 0.986394 0.000000 0.164399 0.190591 0.201968
0.342856 0.116296 0.432884 0.986394 0.000000 0.164399 0.211041 0.324665
0.387128 0.116296 0.004919 -0.000000 -0.000000 -1.000000 0.190591 0.126986
0.387128 -0.150071 0.004919 -0.000000 -0.000000 -1.000000 0.190591 0.126986
0.044272 -0.150071 0.004919 -0.000000 -0.000000 -1.000000 0.348958 0.126986
0.044272 0.116296 0.004919 -0.000000 -0.000000 -1.000000 0.348958 0.126986
0.387128 0.116296 0.004919 -0.000000 1.000000 0.000000 0.190591 0.126986
0.044272 0.116296 0.004919 -0.000000 1.000000 0.000000 0.348958 0.126986
0.044272 -0.312283 0.004919 -1.000000 0.000000 -0.000000 0.348958 0.126986
0.044272 -0.312283 0.167251 -1.000000 0.000000 -0.000000 0.348958 0.201968
0.387128 -0.150071 0.167251 1.000000 0.000000 0.000000 0.190591 0.201968
0.387128 -0.150071 0.004919 1.000000 0.000000 0.000000 0.190591 0.126986
0.387128 0.116296 0.004919 1.000000 0.000000 0.000000 0.190591 0.126986
0.387128 0.116296 0.167251 1.000000 0.000000 0.000000 0.190591 0.201968
0.044272 -0.312283 0.167251 -0.000000 -1.000000 0.000000 0.348958 0.201968
0.044272 -0.312283 0.004919 -0.000000 -1.000000 0.000000 0.348958 0.126986
0.387128 -0.312283 0.004919 -0.000000 -1.000000 0.000000 0.190591 0.126986
0.387128 -0.312283 0.167251 -0.000000 -1.000000 0.000000 0.190591 0.201968
0.387128 -0.312283 0.004919 -0.000000 -0.000000 -1.000000 0.190591 0.126986
0.044272 -0.312283 0.004919 -0.000000 -0.000000 -1.000000 0.348958 0.126986
0.387128 -0.312283 0.167251 1.000000 0.000000 -0.000000 0.190591 0.201968
0.387128 -0.312283 0.004919 1.000000 0.000000 -0.000000 0.190591 0.126986
0.044272 -0.150071 0.167251 0.000000 0.000000 1.000000 0.348958 0.201968
0.044272 -0.312283 0.167251 0.000000 0.000000 1.000000 0.348958 0.201968
0.387128 -0.312283 0.167251 0.000000 0.000000 1.000000 0.190591 0.201968
0.387128 -0.150071 0.167251 0.000000 0.000000 1.000000 0.190591 0.201968
0.141930 0.190919 1.445261 0.518784 0.755394 -0.400250 0.306110 0.796077
0.097541 0.125001 1.384600 0.470656 0.753166 -0.459548 0.329051 0.770874
0.137036 0.188615 1.778468 0.545671 0.756920 0.359508 0.306110 0.946196
0.221730 0.072044 1.778468 0.886196 0.289285 0.361888 0.266989 0.946196
0.227729 0.074893 1.441818 0.873806 0.292459 -0.388470 0.266989 0.796077
0.221730 -0.072044 1.778468 0.886868 -0.289468 0.359996 0.266989 0.946196
0.228107 -0.069068 1.444521 0.865688 -0.302774 -0.398572 0.266989 0.796077
0.143117 -0.185857 1.450184 0.509659 -0.746635 -0.427503 0.843791 0.808381
0.137036 -0.188614 1.778468 0.545915 -0.759270 0.354137 0.843791 0.958500
0.098643 -0.114776 1.393287 0.450850 -0.726737 -0.518174 0.329051 0.770874
0.143117 -0.185857 1.450184 0.509659 -0.746635 -0.427503 0.306110 0.796077
0.156735 0.053154 1.374143 0.857845 0.319346 -0.402600 0.304110 0.770874
0.156912 -0.038727 1.380311 0.841670 -0.315744 -0.438002 0.304110 0.770874
0.099417 -0.111805 1.336667 0.673940 -0.515305 0.529344 0.329051 0.745326
0.164608 -0.034945 1.301710 0.833277 -0.073611 0.547868 0.304110 0.745326
0.168976 -0.054904 1.835403 0.428449 -0.139195 0.892758 0.291357 0.972494
0.104433 -0.143739 1.835403 0.264809 -0.364452 0.892758 0.321169 0.972494
0.137036 -0.188614 1.778468 0.545915 -0.759270 0.354137 0.306110 0.946196
0.163906 0.056870 1.284588 0.782311 0.286416 0.553087 0.304110 0.745326
0.097394 0.127227 1.316221 0.588153 0.619678 0.519639 0.329051 0.745326
0.228107 -0.069068 1.444521 0.865688 -0.302774 -0.398572 0.804670 0.808381
0.221730 -0.072044 1.778468 0.886868 -0.289468 0.359996 0.804670 0.958500
0.024134 0.033217 1.835403 0.365062 0.502487 0.783685 0.358260 0.972494
0.104433 0.143739 1.835403 0.264809 0.364452 0.892758 0.321170 0.972494
0.168976 0.054904 1.835403 0.428449 0.139195 0.892758 0.291357 0.972494
0.024134 -0.033217 1.835403 0.365062 -0.502487 0.783685 0.358260 0.972494
0.024134 -0.033217 1.878103 0.449782 -0.619098 0.643696 0.358260 0.992218
0.039049 0.012688 1.835403 0.590716 0.191931 0.783685 0.351370 0.972494
0.039049 -0.012688 1.835403 0.590716 -0.191931 0.783685 0.351370 0.972494
0.024134 0.033217 1.878103 0.449782 0.619098 0.643696 0.358260 0.992218
0.039049 0.012688 1.878103 0.727805 0.236457 0.643696 0.351370 0.992218
0.039049 -0.012688 1.878103 0.727805 -0.236457 0.643696 0.351370 0.992218
10 0 1 2 3 4 5 6 7 8 9
4 10 11 12 13
4 14 15 16 17
4 18 19 20 21
4 22 23 24 25
4 26 27 28 29
4 30 31 32 33
4 34 35 36 37
4 38 39 40 41
4 42 43 44 45
4 46 47 48 49
4 50 51 52 53
4 54 55 56 57
4 58 59 60 61
4 62 63 64 65
4 66 67 68 69
4 70 71 72 73
4 74 75 76 77
4 78 79 80 81
4 82 83 84 85
4 86 87 88 89
4 90 91 92 93
4 94 95 96 97
4 98 99 100 101
4 89 88 102 103
4 84 83 104 105
4 106 107 108 109
4 110 111 112 113
4 101 100 114 115
4 106 109 116 117
4 118 119 120 121
4 122 123 124 125
4 124 126 127 128
4 126 129 130 127
4 131 132 133 134
4 135 136 137 138
4 125 124 128 139
4 140 141 129 126
4 142 136 135 143
4 143 135 141 144
4 130 145 146 147
4 144 141 140 148
4 141 135 138 129
4 148 140 123 149
4 123 140 126 124
4 149 123 122 150
4 151 131 134 152
4 153 154 155 156
4 139 128 154 153
4 145 157 158 146
4 128 127 159 154
4 127 130 147 159
4 160 161 162 163
4 146 158 161 160
4 154 159 164 155
4 159 147 165 164
4 147 146 160 165
4 155 164 166 167
4 164 165 168 166
4 165 160 163 168
4 156 155 167 169
6 169 167 166 168 163 162
10 170 171 172 173 174 175 176 177 178 179
4 180 181 182 183
4 184 185 186 187
4 188 189 190 191
4 192 193 194 195
4 196 197 198 199
4 200 201 202 203
4 34 204 205 206
4 207 208 209 210
4 211 212 213 214
4 215 216 217 218
4 219 220 221 222
4 223 224 225 226
4 227 228 229 230
4 231 232 233 234
4 235 236 237 238
4 239 240 241 242
4 243 244 245 246
4 247 248 249 250
4 251 252 253 254
4 255 256 257 87
4 258 259 260 261
4 262 263 264 265
4 266 267 268 269
4 256 270 271 257
4 253 272 273 254
4 274 275 276 277
4 278 279 280 281
4 267 282 283 268
4 274 284 285 275
4 286 287 288 289
4 122 125 290 291
4 290 292 293 294
4 294 293 295 296
4 297 298 133 132
4 299 300 137 136
4 125 139 292 290
4 301 294 296 302
4 142 303 299 136
4 303 304 302 299
4 295 305 306 307
4 304 308 301 302
4 302 296 300 299
4 308 309 291 301
4 291 290 294 301
4 309 150 122 291
4 310 311 298 297
4 153 156 312 313
4 139 153 313 292
4 307 306 158 157
4 292 313 314 293
4 293 314 305 295
4 315 316 162 161
4 306 315 161 158
4 313 312 317 314
4 314 317 318 305
4 305 318 315 306
4 312 319 320 317
4 317 320 321 318
4 318 321 316 315
4 156 169 319 312
6 169 162 316 321 320 319
